<svg aria-hidden="true" style="position: absolute; width: 0; height: 0; overflow: hidden;" version="1.1" xmlns="http://www.w3.org/2000/svg" xmlns:xlink="http://www.w3.org/1999/xlink">
<defs>
<symbol id="icon-close" viewBox="0 0 32 32">
<path d="M25.609 8.276c0.232-0.24 0.374-0.566 0.374-0.926 0-0.736-0.597-1.333-1.333-1.333-0.36 0-0.687 0.143-0.927 0.375l-7.724 7.724-7.724-7.724c-0.24-0.232-0.566-0.374-0.926-0.374-0.736 0-1.333 0.597-1.333 1.333 0 0.36 0.143 0.687 0.375 0.927l7.724 7.724-7.724 7.724c-0.251 0.243-0.407 0.583-0.407 0.959 0 0.736 0.597 1.333 1.333 1.333 0.376 0 0.716-0.156 0.959-0.407l7.724-7.724 7.724 7.724c0.24 0.232 0.566 0.374 0.926 0.374 0.736 0 1.333-0.597 1.333-1.333 0-0.36-0.143-0.687-0.375-0.927l-7.724-7.724 7.724-7.724z"></path>
</symbol>
<symbol id="icon-gas" viewBox="0 0 32 32">
<path d="M16.015 1.28c-0.005-0-0.010-0-0.015-0-0.14 0-0.27 0.045-0.375 0.121l0.002-0.001c0 0-0.851 0.613-1.701 1.556s-1.765 2.242-1.765 3.764c0 1.975 1.762 3.52 3.84 3.52s3.84-1.545 3.84-3.52c0-1.521-0.915-2.82-1.765-3.764s-1.701-1.556-1.701-1.556c-0.1-0.072-0.224-0.117-0.358-0.12h-0.001zM16 2.783c0.245 0.191 0.562 0.405 1.125 1.030 0.75 0.833 1.435 1.933 1.435 2.908 0 1.206-1.104 2.24-2.56 2.24s-2.56-1.034-2.56-2.24c0-0.974 0.685-2.075 1.435-2.908 0.563-0.625 0.88-0.839 1.125-1.030zM16 8.96c0.707 0 1.28-0.644 1.28-1.44s-1.28-2.4-1.28-2.4c0 0-1.28 1.604-1.28 2.4s0.573 1.44 1.28 1.44zM7.040 8.96c-1.76 0-3.2 1.44-3.2 3.2v1.92h-1.92c-1.053 0-1.92 0.867-1.92 1.92v10.24c0 1.053 0.867 1.92 1.92 1.92h0.64v1.28c0 0.7 0.58 1.28 1.28 1.28h1.28c0.7 0 1.28-0.58 1.28-1.28v-1.28h19.2v1.28c0 0.7 0.58 1.28 1.28 1.28h1.28c0.7 0 1.28-0.58 1.28-1.28v-1.28h0.64c1.053 0 1.92-0.867 1.92-1.92v-10.24c0-1.053-0.867-1.92-1.92-1.92h-1.92v-1.92c0-1.76-1.44-3.2-3.2-3.2h-1.28c-0.003-0-0.006-0-0.009-0-0.354 0-0.64 0.287-0.64 0.64s0.287 0.64 0.64 0.64c0.003 0 0.006-0 0.010-0h1.28c1.068 0 1.92 0.852 1.92 1.92v1.92h-2.56v-0.575c0-1.049-0.861-1.914-1.91-1.92l-12.801-0.059c-1.056-0.005-1.929 0.864-1.929 1.92v0.634h-2.56v-1.92c0-1.068 0.852-1.92 1.92-1.92h1.28c0.003 0 0.006 0 0.009 0 0.354 0 0.64-0.287 0.64-0.64s-0.287-0.64-0.64-0.64c-0.003 0-0.006 0-0.010 0h-1.28zM9.602 12.806h0.001l12.799 0.059c0.36 0.002 0.637 0.28 0.637 0.64v0.575h-14.080v-0.634c0-0.363 0.28-0.642 0.643-0.64zM1.92 15.36h6.293c0.031 0.005 0.068 0.009 0.104 0.009s0.073-0.003 0.108-0.009l-0.004 0.001h15.151c0.031 0.005 0.067 0.009 0.104 0.009s0.073-0.003 0.108-0.009l-0.004 0.001h6.299c0.362 0 0.64 0.278 0.64 0.64v10.24c0 0.362-0.278 0.64-0.64 0.64h-28.16c-0.362 0-0.64-0.278-0.64-0.64v-10.24c0-0.362 0.278-0.64 0.64-0.64zM16 16.64c-2.467 0-4.48 2.013-4.48 4.48s2.013 4.48 4.48 4.48c2.467 0 4.48-2.013 4.48-4.48s-2.013-4.48-4.48-4.48zM27.84 17.28c-0.53 0-0.96 0.43-0.96 0.96v0c0 0.53 0.43 0.96 0.96 0.96v0c0.53 0 0.96-0.43 0.96-0.96v0c0-0.53-0.43-0.96-0.96-0.96v0zM16 17.92c1.556 0 2.842 1.094 3.136 2.56h-6.273c0.294-1.466 1.581-2.56 3.136-2.56zM12.864 21.76h6.273c-0.294 1.466-1.581 2.56-3.136 2.56s-2.842-1.094-3.136-2.56zM3.84 28.16h1.28v1.28h-1.28v-1.28zM26.88 28.16h1.28v1.28h-1.28v-1.28z"></path>
</symbol>
<symbol id="icon-close-circle" viewBox="0 0 32 32">
<path d="M13.374 11.96c-0.391-0.391-1.024-0.391-1.414 0s-0.391 1.024 0 1.414l2.626 2.626-2.626 2.626c-0.391 0.39-0.391 1.024 0 1.414s1.024 0.391 1.414 0l2.626-2.626 2.626 2.626c0.391 0.391 1.024 0.391 1.414 0s0.391-1.024 0-1.414l-2.626-2.626 2.626-2.626c0.391-0.39 0.391-1.024 0-1.414s-1.024-0.391-1.414 0l-2.626 2.626-2.626-2.626z"></path>
<path d="M16 1.667c-7.916 0-14.333 6.417-14.333 14.333s6.417 14.333 14.333 14.333c7.916 0 14.333-6.417 14.333-14.333s-6.417-14.333-14.333-14.333zM3.667 16c0-6.811 5.522-12.333 12.333-12.333s12.333 5.522 12.333 12.333c0 6.811-5.522 12.333-12.333 12.333s-12.333-5.522-12.333-12.333z"></path>
</symbol>
<symbol id="icon-microwave" viewBox="0 0 32 32">
<path d="M1.92 5.12c-1.052 0-1.92 0.867-1.92 1.92v17.92c0 1.052 0.868 1.92 1.92 1.92h1.28v0.64c0 0.7 0.58 1.28 1.28 1.28h1.92c0.7 0 1.28-0.58 1.28-1.28v-0.64h16.64v0.64c0 0.7 0.58 1.28 1.28 1.28h1.92c0.7 0 1.28-0.58 1.28-1.28v-0.64h1.28c1.052 0 1.92-0.867 1.92-1.92v-17.92c0-1.053-0.867-1.92-1.92-1.92zM1.92 6.4h28.16c0.36 0 0.64 0.28 0.64 0.64v17.92c0 0.36-0.28 0.64-0.64 0.64h-5c-0.085-0.017-0.175-0.017-0.26 0h-20.86c-0.085-0.017-0.175-0.017-0.26 0h-1.78c-0.36 0-0.64-0.28-0.64-0.64v-17.92c0-0.36 0.28-0.64 0.64-0.64zM3.2 8.32v15.36h22.4v-15.36zM4.48 9.6h19.84v12.8h-19.84zM28.16 10.24c-0.707 0-1.28 0.572-1.28 1.28s0.573 1.28 1.28 1.28c0.707 0 1.28-0.572 1.28-1.28s-0.573-1.28-1.28-1.28zM21.86 12.76c-0.128-0.002-0.253 0.033-0.36 0.1 0 0-2.962 1.22-4.78 1.22-0.908 0-1.52-0.26-2.26-0.58s-1.617-0.7-2.8-0.7c-2.365 0-4.9 1.34-4.9 1.34-0.32 0.155-0.455 0.54-0.3 0.86s0.54 0.455 0.86 0.3c0 0 2.492-1.22 4.34-1.22 0.925 0 1.543 0.26 2.28 0.58s1.61 0.7 2.78 0.7c2.343 0 5.3-1.34 5.3-1.34 0.313-0.080 0.517-0.38 0.475-0.7-0.040-0.32-0.313-0.56-0.635-0.56zM28.16 14.72c-0.707 0-1.28 0.572-1.28 1.28s0.573 1.28 1.28 1.28c0.707 0 1.28-0.573 1.28-1.28s-0.573-1.28-1.28-1.28zM21.86 16.6c-0.128-0.003-0.253 0.032-0.36 0.1 0 0-2.962 1.22-4.78 1.22-0.908 0-1.52-0.26-2.26-0.58s-1.617-0.7-2.8-0.7c-2.365 0-4.9 1.34-4.9 1.34-0.32 0.155-0.455 0.54-0.3 0.86s0.54 0.455 0.86 0.3c0 0 2.492-1.22 4.34-1.22 0.925 0 1.543 0.26 2.28 0.58s1.61 0.7 2.78 0.7c2.343 0 5.3-1.34 5.3-1.34 0.313-0.080 0.517-0.38 0.475-0.7-0.040-0.32-0.313-0.56-0.635-0.56zM28.16 19.2c-0.707 0-1.28 0.573-1.28 1.28s0.573 1.28 1.28 1.28c0.707 0 1.28-0.573 1.28-1.28s-0.573-1.28-1.28-1.28zM4.48 26.88h1.92v0.64h-1.92zM25.6 26.88h1.92v0.64h-1.92z"></path>
</symbol>
<symbol id="icon-bathroom" viewBox="0 0 32 32">
<path d="M8.435 19.392h12.686c0.529 0 0.957-0.429 0.957-0.958v-0.919h-14.601v0.919c0 0.529 0.428 0.958 0.958 0.958z"></path>
<path d="M16.561 11.536v-0.764c0-0.391-0.318-0.709-0.709-0.709h-2.147c-0.392 0-0.709 0.318-0.709 0.709v0.764c-2.682 0.654-4.801 2.747-5.488 5.416h14.541c-0.687-2.669-2.806-4.762-5.488-5.416z"></path>
<path d="M4.425 31.186c0 0.45 0.364 0.814 0.813 0.814s0.813-0.364 0.813-0.814c0-0.449-0.813-1.448-0.813-1.448s-0.813 0.999-0.813 1.448z"></path>
<path d="M9.195 31.186c0 0.45 0.364 0.814 0.813 0.814s0.813-0.364 0.813-0.814c0-0.449-0.813-1.448-0.813-1.448s-0.813 0.999-0.813 1.448z"></path>
<path d="M13.965 31.186c0 0.45 0.364 0.814 0.813 0.814s0.813-0.364 0.813-0.814c0-0.449-0.813-1.448-0.813-1.448s-0.813 0.999-0.813 1.448z"></path>
<path d="M18.735 31.186c0 0.45 0.364 0.814 0.813 0.814s0.813-0.364 0.813-0.814c0-0.449-0.813-1.448-0.813-1.448s-0.813 0.999-0.813 1.448z"></path>
<path d="M23.505 31.186c0 0.45 0.364 0.814 0.813 0.814s0.813-0.364 0.813-0.814c0-0.449-0.813-1.448-0.813-1.448s-0.813 0.999-0.813 1.448z"></path>
<path d="M6.81 26.887c0 0.449 0.364 0.813 0.813 0.813s0.813-0.364 0.813-0.813c0-0.45-0.813-1.449-0.813-1.449s-0.813 1-0.813 1.449z"></path>
<path d="M11.58 26.887c0 0.449 0.364 0.813 0.813 0.813s0.813-0.364 0.813-0.813c0-0.45-0.813-1.449-0.813-1.449s-0.813 1-0.813 1.449z"></path>
<path d="M16.349 26.887c0 0.449 0.364 0.813 0.813 0.813s0.813-0.364 0.813-0.813c0-0.45-0.813-1.449-0.813-1.449s-0.813 1-0.813 1.449z"></path>
<path d="M21.119 26.887c0 0.449 0.364 0.813 0.813 0.813s0.813-0.364 0.813-0.813c0-0.45-0.813-1.449-0.813-1.449s-0.813 1-0.813 1.449z"></path>
<path d="M9.195 23.016c0 0.449 0.364 0.814 0.813 0.814s0.813-0.364 0.813-0.814c0-0.449-0.813-1.448-0.813-1.448s-0.813 1-0.813 1.448z"></path>
<path d="M13.965 23.016c0 0.449 0.364 0.814 0.813 0.814s0.813-0.364 0.813-0.814c0-0.449-0.813-1.448-0.813-1.448s-0.813 1-0.813 1.448z"></path>
<path d="M18.735 23.016c0 0.449 0.364 0.814 0.813 0.814s0.813-0.364 0.813-0.814c0-0.449-0.813-1.448-0.813-1.448s-0.813 1-0.813 1.448z"></path>
<path d="M25.042 1.139v4.497c0.62 0.699 1.525 1.139 2.533 1.139v-6.776c-1.008 0-1.913 0.441-2.533 1.139z"></path>
<path d="M15.829 8.526c0-0.591 0.119-1.148 0.334-1.657 0.322-0.763 0.864-1.415 1.544-1.874 0.34-0.23 0.714-0.411 1.113-0.535s0.823-0.192 1.267-0.192h4.092v-2.064h-4.092c-0.87-0.001-1.704 0.177-2.461 0.497-1.136 0.481-2.099 1.281-2.781 2.289-0.341 0.505-0.611 1.061-0.796 1.656s-0.284 1.227-0.284 1.879v0.72h2.064v-0.72z"></path>
</symbol>
<symbol id="icon-refrigerator" viewBox="0 0 32 32">
<path d="M10.877 6.912c-0.362 0-0.655 0.294-0.655 0.656v4.125c0 0.362 0.293 0.656 0.655 0.656s0.656-0.294 0.656-0.656v-4.125c0-0.362-0.294-0.656-0.656-0.656z"></path>
<path d="M22.678 0h-13.357c-2.103 0-3.806 1.704-3.807 3.807v24.386c0 2.102 1.704 3.806 3.807 3.807h13.357c2.103-0.001 3.806-1.704 3.807-3.807v-24.386c-0.001-2.103-1.704-3.806-3.807-3.807zM24.854 28.193c-0 0.602-0.243 1.143-0.638 1.538s-0.937 0.637-1.539 0.638h-13.357c-0.603-0-1.144-0.243-1.539-0.638s-0.637-0.936-0.637-1.538v-3.416h17.709v3.416zM24.854 23.845h-17.709v-5.592h17.709v5.592zM24.854 17.32h-17.709v-13.514c0-0.603 0.243-1.144 0.637-1.539s0.936-0.637 1.539-0.637h13.357c0.602 0 1.144 0.243 1.539 0.637 0.395 0.395 0.637 0.937 0.638 1.539v13.514z"></path>
</symbol>
<symbol id="icon-arrow-left" viewBox="0 0 32 32">
<path d="M20.943 5.724c0.521 0.521 0.521 1.365 0 1.886l-8.391 8.391 8.391 8.391c0.521 0.521 0.521 1.365 0 1.886s-1.365 0.521-1.886 0l-9.333-9.333c-0.521-0.521-0.521-1.365 0-1.886l9.333-9.333c0.521-0.521 1.365-0.521 1.886 0z"></path>
</symbol>
<symbol id="icon-arrow-right" viewBox="0 0 32 32">
<path d="M11.057 26.276c-0.521-0.521-0.521-1.365 0-1.886l8.391-8.391-8.391-8.391c-0.521-0.521-0.521-1.365 0-1.886s1.365-0.521 1.886 0l9.333 9.333c0.521 0.521 0.521 1.365 0 1.886l-9.333 9.333c-0.521 0.521-1.365 0.521-1.886 0z"></path>
</symbol>
<symbol id="icon-map" viewBox="0 0 32 32">
<path d="M31.634 0.226c0.115 0.094 0.207 0.212 0.27 0.346s0.096 0.28 0.096 0.428v28c-0 0.231-0.080 0.455-0.227 0.634s-0.351 0.301-0.577 0.346l-10 2c-0.129 0.026-0.263 0.026-0.392 0l-9.804-1.96-9.804 1.96c-0.145 0.029-0.295 0.025-0.438-0.010s-0.277-0.103-0.392-0.197c-0.114-0.094-0.207-0.212-0.27-0.345s-0.096-0.28-0.096-0.428v-28c0-0.231 0.080-0.455 0.227-0.634s0.351-0.301 0.577-0.346l10-2c0.129-0.026 0.263-0.026 0.392 0l9.804 1.96 9.804-1.96c0.145-0.029 0.295-0.026 0.438 0.010s0.277 0.103 0.392 0.196zM20 3.82l-8-1.6v25.96l8 1.6v-25.96zM22 29.78l8-1.6v-25.96l-8 1.6v25.96zM10 28.18v-25.96l-8 1.6v25.96l8-1.6z"></path>
</symbol>
<symbol id="icon-star" viewBox="0 0 32 32">
<path d="M15.116 1.676c0.375-0.711 1.394-0.711 1.769 0l3.777 7.158c0.145 0.274 0.408 0.466 0.714 0.519l7.975 1.38c0.792 0.137 1.107 1.106 0.547 1.682l-5.641 5.804c-0.216 0.222-0.317 0.532-0.273 0.839l1.152 8.010c0.114 0.796-0.71 1.395-1.431 1.040l-7.263-3.571c-0.278-0.137-0.604-0.137-0.882 0l-7.262 3.571c-0.722 0.355-1.546-0.244-1.431-1.040l1.152-8.010c0.044-0.307-0.057-0.617-0.273-0.839l-5.64-5.804c-0.56-0.577-0.246-1.545 0.547-1.682l7.974-1.38c0.306-0.053 0.569-0.244 0.714-0.519l3.776-7.158z"></path>
</symbol>
<symbol id="icon-heart" viewBox="0 0 32 32">
<path d="M16 13.139l-1.788-3.578c-0.444-0.886-1.214-2.16-2.304-3.19-1.072-1.014-2.356-1.704-3.908-1.704-3.352 0-6 2.652-6 5.84 0 2.422 1.108 4.132 3.736 6.74 0.674 0.668 1.442 1.39 2.292 2.186 2.216 2.080 4.972 4.668 7.972 8.128 3-3.46 5.756-6.048 7.972-8.128 0.85-0.796 1.62-1.52 2.292-2.186 2.628-2.608 3.736-4.318 3.736-6.74 0-3.188-2.648-5.84-6-5.84-1.554 0-2.836 0.69-3.908 1.704-1.090 1.030-1.86 2.304-2.304 3.19l-1.788 3.578zM16.784 29.723c-0.096 0.114-0.216 0.206-0.352 0.269s-0.283 0.095-0.432 0.095-0.297-0.033-0.432-0.095c-0.135-0.063-0.255-0.155-0.352-0.269-3.202-3.804-6.1-6.524-8.486-8.762-4.13-3.878-6.73-6.316-6.73-10.454 0-4.33 3.58-7.84 8-7.84 3.2 0 5.438 2.1 6.808 4.016 0.52 0.73 0.916 1.432 1.192 1.984 0.346-0.691 0.745-1.354 1.192-1.984 1.37-1.918 3.608-4.016 6.808-4.016 4.42 0 8 3.51 8 7.84 0 4.138-2.6 6.576-6.73 10.454-2.386 2.24-5.284 4.962-8.486 8.762z"></path>
</symbol>
<symbol id="icon-alcove" viewBox="0 0 32 32">
<path d="M8 4v4h-4v-4h4zM10 28v-4c0-0.53-0.211-1.039-0.586-1.414s-0.884-0.586-1.414-0.586h-4c-0.53 0-1.039 0.211-1.414 0.586s-0.586 0.884-0.586 1.414v4c0 0.53 0.211 1.039 0.586 1.414s0.884 0.586 1.414 0.586h4c0.53 0 1.039-0.211 1.414-0.586s0.586-0.884 0.586-1.414zM10 18v-4c0-0.53-0.211-1.039-0.586-1.414s-0.884-0.586-1.414-0.586h-4c-0.53 0-1.039 0.211-1.414 0.586s-0.586 0.884-0.586 1.414v4c0 0.53 0.211 1.039 0.586 1.414s0.884 0.586 1.414 0.586h4c0.53 0 1.039-0.211 1.414-0.586s0.586-0.884 0.586-1.414zM10 8v-4c0-0.53-0.211-1.039-0.586-1.414s-0.884-0.586-1.414-0.586h-4c-0.53 0-1.039 0.211-1.414 0.586s-0.586 0.884-0.586 1.414v4c0 0.53 0.211 1.039 0.586 1.414s0.884 0.586 1.414 0.586h4c0.53 0 1.039-0.211 1.414-0.586s0.586-0.884 0.586-1.414zM20 28v-4c0-0.53-0.211-1.039-0.586-1.414s-0.884-0.586-1.414-0.586h-4c-0.53 0-1.039 0.211-1.414 0.586s-0.586 0.884-0.586 1.414v4c0 0.53 0.211 1.039 0.586 1.414s0.884 0.586 1.414 0.586h4c0.53 0 1.039-0.211 1.414-0.586s0.586-0.884 0.586-1.414zM20 18v-4c0-0.53-0.211-1.039-0.586-1.414s-0.884-0.586-1.414-0.586h-4c-0.53 0-1.039 0.211-1.414 0.586s-0.586 0.884-0.586 1.414v4c0 0.53 0.211 1.039 0.586 1.414s0.884 0.586 1.414 0.586h4c0.53 0 1.039-0.211 1.414-0.586s0.586-0.884 0.586-1.414zM20 8v-4c0-0.53-0.211-1.039-0.586-1.414s-0.884-0.586-1.414-0.586h-4c-0.53 0-1.039 0.211-1.414 0.586s-0.586 0.884-0.586 1.414v4c0 0.53 0.211 1.039 0.586 1.414s0.884 0.586 1.414 0.586h4c0.53 0 1.039-0.211 1.414-0.586s0.586-0.884 0.586-1.414zM18 4v4h-4v-4h4zM28 4v4h-4v-4h4zM8 14v4h-4v-4h4zM18 14v4h-4v-4h4zM28 14h-4v4h4v-4zM8 24v4h-4v-4h4zM18 24v4h-4v-4h4zM28 24v4h-4v-4h4zM24 2c-0.53 0-1.039 0.211-1.414 0.586s-0.586 0.884-0.586 1.414v4c0 0.53 0.211 1.039 0.586 1.414s0.884 0.586 1.414 0.586h4c0.53 0 1.039-0.211 1.414-0.586s0.586-0.884 0.586-1.414v-4c0-0.53-0.211-1.039-0.586-1.414s-0.884-0.586-1.414-0.586h-4zM22 14c0-0.53 0.211-1.039 0.586-1.414s0.884-0.586 1.414-0.586h4c0.53 0 1.039 0.211 1.414 0.586s0.586 0.884 0.586 1.414v4c0 0.53-0.211 1.039-0.586 1.414s-0.884 0.586-1.414 0.586h-4c-0.53 0-1.039-0.211-1.414-0.586s-0.586-0.884-0.586-1.414v-4zM24 22c-0.53 0-1.039 0.211-1.414 0.586s-0.586 0.884-0.586 1.414v4c0 0.53 0.211 1.039 0.586 1.414s0.884 0.586 1.414 0.586h4c0.53 0 1.039-0.211 1.414-0.586s0.586-0.884 0.586-1.414v-4c0-0.53-0.211-1.039-0.586-1.414s-0.884-0.586-1.414-0.586h-4z"></path>
</symbol>
<symbol id="icon-fully_integrated" viewBox="0 0 32 32">
<path d="M2 5c0-0.796 0.316-1.559 0.879-2.121s1.326-0.879 2.121-0.879h6c0.796 0 1.559 0.316 2.121 0.879s0.879 1.326 0.879 2.121v6c0 0.796-0.316 1.559-0.879 2.121s-1.326 0.879-2.121 0.879h-6c-0.796 0-1.559-0.316-2.121-0.879s-0.879-1.326-0.879-2.121v-6zM5 4c-0.265 0-0.52 0.105-0.707 0.293s-0.293 0.442-0.293 0.707v6c0 0.265 0.105 0.52 0.293 0.707s0.442 0.293 0.707 0.293h6c0.265 0 0.52-0.105 0.707-0.293s0.293-0.442 0.293-0.707v-6c0-0.265-0.105-0.52-0.293-0.707s-0.442-0.293-0.707-0.293h-6zM18 5c0-0.796 0.316-1.559 0.879-2.121s1.326-0.879 2.121-0.879h6c0.796 0 1.559 0.316 2.121 0.879s0.879 1.326 0.879 2.121v6c0 0.796-0.316 1.559-0.879 2.121s-1.326 0.879-2.121 0.879h-6c-0.796 0-1.559-0.316-2.121-0.879s-0.879-1.326-0.879-2.121v-6zM21 4c-0.265 0-0.52 0.105-0.707 0.293s-0.293 0.442-0.293 0.707v6c0 0.265 0.105 0.52 0.293 0.707s0.442 0.293 0.707 0.293h6c0.265 0 0.52-0.105 0.707-0.293s0.293-0.442 0.293-0.707v-6c0-0.265-0.105-0.52-0.293-0.707s-0.442-0.293-0.707-0.293h-6zM2 21c0-0.796 0.316-1.559 0.879-2.121s1.326-0.879 2.121-0.879h6c0.796 0 1.559 0.316 2.121 0.879s0.879 1.326 0.879 2.121v6c0 0.796-0.316 1.559-0.879 2.121s-1.326 0.879-2.121 0.879h-6c-0.796 0-1.559-0.316-2.121-0.879s-0.879-1.326-0.879-2.121v-6zM5 20c-0.265 0-0.52 0.105-0.707 0.293s-0.293 0.442-0.293 0.707v6c0 0.265 0.105 0.52 0.293 0.707s0.442 0.293 0.707 0.293h6c0.265 0 0.52-0.105 0.707-0.293s0.293-0.442 0.293-0.707v-6c0-0.265-0.105-0.52-0.293-0.707s-0.442-0.293-0.707-0.293h-6zM18 21c0-0.796 0.316-1.559 0.879-2.121s1.326-0.879 2.121-0.879h6c0.796 0 1.559 0.316 2.121 0.879s0.879 1.326 0.879 2.121v6c0 0.796-0.316 1.559-0.879 2.121s-1.326 0.879-2.121 0.879h-6c-0.796 0-1.559-0.316-2.121-0.879s-0.879-1.326-0.879-2.121v-6zM21 20c-0.265 0-0.52 0.105-0.707 0.293s-0.293 0.442-0.293 0.707v6c0 0.265 0.105 0.52 0.293 0.707s0.442 0.293 0.707 0.293h6c0.265 0 0.52-0.105 0.707-0.293s0.293-0.442 0.293-0.707v-6c0-0.265-0.105-0.52-0.293-0.707s-0.442-0.293-0.707-0.293h-6z"></path>
</symbol>
<symbol id="icon-van" viewBox="0 0 32 32">
<path d="M12 2h-10v28h10v-28zM30 2h-10v10h10v-10zM30 20v10h-10v-10h10zM0 2c0-0.53 0.211-1.039 0.586-1.414s0.884-0.586 1.414-0.586h10c0.53 0 1.039 0.211 1.414 0.586s0.586 0.884 0.586 1.414v28c0 0.53-0.211 1.039-0.586 1.414s-0.884 0.586-1.414 0.586h-10c-0.53 0-1.039-0.211-1.414-0.586s-0.586-0.884-0.586-1.414v-28zM18 2c0-0.53 0.211-1.039 0.586-1.414s0.884-0.586 1.414-0.586h10c0.53 0 1.039 0.211 1.414 0.586s0.586 0.884 0.586 1.414v10c0 0.53-0.211 1.039-0.586 1.414s-0.884 0.586-1.414 0.586h-10c-0.53 0-1.039-0.211-1.414-0.586s-0.586-0.884-0.586-1.414v-10zM20 18c-0.53 0-1.039 0.211-1.414 0.586s-0.586 0.884-0.586 1.414v10c0 0.53 0.211 1.039 0.586 1.414s0.884 0.586 1.414 0.586h10c0.53 0 1.039-0.211 1.414-0.586s0.586-0.884 0.586-1.414v-10c0-0.53-0.211-1.039-0.586-1.414s-0.884-0.586-1.414-0.586h-10z"></path>
</symbol>
<symbol id="icon-water" viewBox="0 0 32 32">
<path d="M14.42 1.6c0.96-1.010 1.58-1.6 1.58-1.6 0.219 0.725 0.466 1.417 0.742 2.076 1.624 3.892 4.146 6.7 6.394 9.2 2.62 2.916 4.864 5.414 4.864 8.724 0 3.183-1.264 6.235-3.515 8.485s-5.303 3.515-8.485 3.515-6.235-1.264-8.485-3.515c-2.25-2.25-3.515-5.303-3.515-8.485 0-6.664 7.16-14.966 10.42-18.4zM15.246 3.642c-1.285 1.389-2.505 2.837-3.658 4.338-1.452 1.9-2.872 4.016-3.92 6.14-1.060 2.146-1.668 4.156-1.668 5.88 0 2.652 1.054 5.196 2.929 7.071s4.419 2.929 7.071 2.929 5.196-1.054 7.071-2.929c1.875-1.875 2.929-4.419 2.929-7.071 0-2.402-1.592-4.314-4.362-7.4l-0.060-0.064c-2.078-2.316-4.578-5.094-6.332-8.894z"></path>
<path d="M9.106 15.552c1.64-3.282 3.434-5.506 4.186-6.26l1.416 1.416c-0.58 0.58-2.256 2.622-3.814 5.74l-1.788-0.896z"></path>
</symbol>
<symbol id="icon-tv" viewBox="0 0 32 32">
<path d="M0 8c0 0 0-4 4-4h24c0 0 4 0 4 4v12c0 0 0 4-4 4h-8c0 1.333 0.167 2.333 0.5 3h1.5c0.265 0 0.52 0.105 0.707 0.293s0.293 0.442 0.293 0.707c0 0.265-0.105 0.52-0.293 0.707s-0.442 0.293-0.707 0.293h-12c-0.265 0-0.52-0.105-0.707-0.293s-0.293-0.442-0.293-0.707c0-0.265 0.105-0.52 0.293-0.707s0.442-0.293 0.707-0.293h1.5c0.333-0.667 0.5-1.667 0.5-3h-8c0 0-4 0-4-4v-12zM2.796 6.29c-0.22 0.153-0.395 0.361-0.508 0.604-0.168 0.353-0.266 0.735-0.288 1.126v11.98c0 0.65 0.156 1.004 0.29 1.204 0.14 0.208 0.341 0.377 0.604 0.508 0.338 0.162 0.703 0.259 1.076 0.286l0.050 0.002h23.98c0.65 0 1.004-0.156 1.204-0.29 0.22-0.153 0.395-0.361 0.508-0.604 0.162-0.338 0.259-0.703 0.286-1.076l0.002-0.050v-11.98c0-0.65-0.156-1.004-0.29-1.204-0.153-0.22-0.361-0.395-0.604-0.508-0.353-0.168-0.736-0.266-1.126-0.288h-23.98c-0.65 0-1.004 0.156-1.204 0.29z"></path>
</symbol>
<symbol id="icon-people" viewBox="0 0 32 32">
<path d="M30 28c0 0 2 0 2-2s-2-8-10-8c-8 0-10 6-10 8s2 2 2 2h16zM14.044 26l-0.044-0.008c0.002-0.528 0.334-2.060 1.52-3.44 1.104-1.294 3.044-2.552 6.48-2.552 3.434 0 5.374 1.26 6.48 2.552 1.186 1.38 1.516 2.914 1.52 3.44l-0.016 0.004-0.028 0.004h-15.912zM22 14c1.061 0 2.078-0.421 2.828-1.172s1.172-1.768 1.172-2.828-0.421-2.078-1.172-2.828c-0.75-0.75-1.768-1.172-2.828-1.172s-2.078 0.421-2.828 1.172c-0.75 0.75-1.172 1.768-1.172 2.828s0.421 2.078 1.172 2.828c0.75 0.75 1.768 1.172 2.828 1.172zM28 10c0 0.788-0.155 1.568-0.457 2.296s-0.743 1.389-1.3 1.947c-0.557 0.557-1.219 0.999-1.947 1.301s-1.508 0.457-2.296 0.457-1.568-0.155-2.296-0.457c-0.728-0.302-1.389-0.744-1.947-1.301s-0.999-1.219-1.3-1.947c-0.302-0.728-0.457-1.508-0.457-2.296 0-1.591 0.632-3.117 1.757-4.243s2.651-1.757 4.243-1.757 3.117 0.632 4.243 1.757c1.125 1.125 1.757 2.651 1.757 4.243zM13.872 18.56c-0.8-0.25-1.625-0.416-2.46-0.494-0.469-0.046-0.941-0.068-1.412-0.066-8 0-10 6-10 8 0 1.333 0.667 2 2 2h8.432c-0.296-0.624-0.444-1.309-0.432-2 0-2.020 0.754-4.084 2.18-5.808 0.486-0.588 1.052-1.138 1.692-1.632zM9.84 20c-1.183 1.779-1.822 3.864-1.84 6h-6c0-0.52 0.328-2.060 1.52-3.448 1.090-1.272 2.984-2.512 6.32-2.55v-0.002zM3 11c0-1.591 0.632-3.117 1.757-4.243s2.651-1.757 4.243-1.757c1.591 0 3.117 0.632 4.243 1.757s1.757 2.651 1.757 4.243c0 1.591-0.632 3.117-1.757 4.243s-2.651 1.757-4.243 1.757c-1.591 0-3.117-0.632-4.243-1.757s-1.757-2.651-1.757-4.243zM9 7c-1.061 0-2.078 0.421-2.828 1.172s-1.172 1.768-1.172 2.828c0 1.061 0.421 2.078 1.172 2.828s1.768 1.172 2.828 1.172c1.061 0 2.078-0.421 2.828-1.172s1.172-1.768 1.172-2.828c0-1.061-0.421-2.078-1.172-2.828s-1.768-1.172-2.828-1.172z"></path>
</symbol>
<symbol id="icon-radio" viewBox="0 0 32 32">
<path d="M14 5c0-0.265 0.105-0.52 0.293-0.707s0.442-0.293 0.707-0.293h14c0.265 0 0.52 0.105 0.707 0.293s0.293 0.442 0.293 0.707v2c0 0.265-0.105 0.52-0.293 0.707s-0.442 0.293-0.707 0.293h-14c-0.265 0-0.52-0.105-0.707-0.293s-0.293-0.442-0.293-0.707v-2zM0 24c0-1.591 0.632-3.117 1.757-4.243s2.651-1.757 4.243-1.757 3.117 0.632 4.243 1.757c1.125 1.125 1.757 2.651 1.757 4.243s-0.632 3.117-1.757 4.243c-1.125 1.125-2.651 1.757-4.243 1.757s-3.117-0.632-4.243-1.757c-1.125-1.125-1.757-2.651-1.757-4.243zM14 21c0-0.265 0.105-0.52 0.293-0.707s0.442-0.293 0.707-0.293h14c0.265 0 0.52 0.105 0.707 0.293s0.293 0.442 0.293 0.707v2c0 0.265-0.105 0.52-0.293 0.707s-0.442 0.293-0.707 0.293h-14c-0.265 0-0.52-0.105-0.707-0.293s-0.293-0.442-0.293-0.707v-2zM14 11c0-0.265 0.105-0.52 0.293-0.707s0.442-0.293 0.707-0.293h10c0.265 0 0.52 0.105 0.707 0.293s0.293 0.442 0.293 0.707-0.105 0.52-0.293 0.707c-0.188 0.188-0.442 0.293-0.707 0.293h-10c-0.265 0-0.52-0.105-0.707-0.293s-0.293-0.442-0.293-0.707zM14 27c0-0.265 0.105-0.52 0.293-0.707s0.442-0.293 0.707-0.293h10c0.265 0 0.52 0.105 0.707 0.293s0.293 0.442 0.293 0.707-0.105 0.52-0.293 0.707c-0.188 0.188-0.442 0.293-0.707 0.293h-10c-0.265 0-0.52-0.105-0.707-0.293s-0.293-0.442-0.293-0.707zM6 2c-0.788 0-1.568 0.155-2.296 0.457s-1.389 0.744-1.947 1.301c-0.557 0.557-0.999 1.219-1.301 1.947s-0.457 1.508-0.457 2.296c0 0.788 0.155 1.568 0.457 2.296s0.744 1.389 1.301 1.947c0.557 0.557 1.219 0.999 1.947 1.301s1.508 0.457 2.296 0.457c1.591 0 3.117-0.632 4.243-1.757s1.757-2.651 1.757-4.243c0-1.591-0.632-3.117-1.757-4.243s-2.651-1.757-4.243-1.757zM6 11c-0.796 0-1.559-0.316-2.121-0.879s-0.879-1.326-0.879-2.121c0-0.796 0.316-1.559 0.879-2.121s1.326-0.879 2.121-0.879c0.796 0 1.559 0.316 2.121 0.879s0.879 1.326 0.879 2.121c0 0.796-0.316 1.559-0.879 2.121s-1.326 0.879-2.121 0.879z"></path>
</symbol>
<symbol id="icon-kitchen" viewBox="0 0 32 32">
<path d="M1 12c-0.15 0-0.297 0.034-0.432 0.098s-0.254 0.159-0.347 0.276c-0.094 0.117-0.16 0.253-0.194 0.399s-0.035 0.297-0.003 0.443l3.304 14.868c0.247 1.111 0.865 2.104 1.752 2.816s1.991 1.1 3.128 1.1h11.584c1.138-0 2.241-0.388 3.128-1.1s1.505-1.705 1.752-2.816l0.262-1.18c1.53 0.286 3.111-0.033 4.41-0.891s2.213-2.187 2.551-3.706 0.071-3.11-0.742-4.437c-0.814-1.327-2.111-2.285-3.618-2.674l0.442-1.98c0.032-0.146 0.032-0.298-0.003-0.443s-0.1-0.282-0.194-0.399c-0.094-0.117-0.212-0.211-0.347-0.276s-0.283-0.098-0.432-0.098h-26zM26 25c-0.212 0-0.423-0.017-0.632-0.050l1.734-7.796c0.925 0.268 1.722 0.86 2.246 1.669s0.738 1.778 0.604 2.732c-0.134 0.954-0.607 1.827-1.333 2.46s-1.656 0.983-2.619 0.985zM5.28 27.65l-3.034-13.65h23.508l-3.034 13.65c-0.148 0.666-0.519 1.262-1.051 1.69s-1.195 0.66-1.877 0.66h-11.584c-0.683-0-1.345-0.233-1.877-0.66s-0.903-1.023-1.051-1.69z"></path>
<path d="M8.8 1.6l-0.006 0.008-0.028 0.038c-0.146 0.2-0.282 0.407-0.408 0.62-0.107 0.171-0.202 0.349-0.282 0.534-0.052 0.12-0.068 0.184-0.074 0.206v0.008c0.023 0.177 0.085 0.346 0.182 0.496 0.15 0.266 0.356 0.544 0.616 0.89l0.020 0.024c0.236 0.316 0.52 0.694 0.74 1.086 0.224 0.4 0.44 0.91 0.44 1.49 0 0.376-0.13 0.736-0.238 0.988-0.116 0.268-0.251 0.528-0.404 0.776-0.157 0.262-0.326 0.517-0.506 0.764l-0.036 0.050-0.010 0.016-0.004 0.004c-0.159 0.212-0.396 0.353-0.658 0.391s-0.529-0.030-0.742-0.189c-0.212-0.159-0.353-0.396-0.391-0.658s0.030-0.529 0.189-0.742l0.006-0.008 0.028-0.038c0.146-0.2 0.282-0.407 0.408-0.62 0.107-0.171 0.202-0.349 0.282-0.534 0.052-0.12 0.068-0.184 0.074-0.206-0.021-0.179-0.083-0.352-0.18-0.504-0.186-0.31-0.392-0.608-0.618-0.89l-0.020-0.024c-0.27-0.345-0.517-0.708-0.74-1.086-0.272-0.451-0.424-0.964-0.44-1.49 0-0.376 0.13-0.736 0.238-0.988 0.118-0.276 0.268-0.548 0.404-0.776 0.159-0.261 0.328-0.516 0.506-0.764l0.050-0.070c0.159-0.212 0.396-0.353 0.658-0.391s0.529 0.030 0.742 0.189c0.212 0.159 0.353 0.396 0.391 0.658s-0.030 0.529-0.189 0.742zM14.8 1.6l-0.006 0.008-0.028 0.038c-0.146 0.2-0.282 0.407-0.408 0.62-0.107 0.171-0.202 0.349-0.282 0.534-0.052 0.12-0.068 0.184-0.074 0.206v0.008c0.023 0.177 0.085 0.346 0.182 0.496 0.15 0.266 0.356 0.544 0.616 0.89l0.020 0.024c0.236 0.316 0.52 0.694 0.74 1.086 0.224 0.4 0.44 0.91 0.44 1.49 0 0.376-0.13 0.736-0.238 0.988-0.116 0.268-0.251 0.528-0.404 0.776-0.157 0.262-0.326 0.517-0.506 0.764l-0.036 0.050-0.010 0.016-0.004 0.004c-0.159 0.212-0.396 0.353-0.658 0.391s-0.529-0.030-0.742-0.189c-0.212-0.159-0.353-0.396-0.391-0.658s0.030-0.529 0.189-0.742l0.006-0.008 0.028-0.038c0.146-0.2 0.282-0.407 0.408-0.62 0.107-0.171 0.202-0.349 0.282-0.534 0.052-0.12 0.068-0.184 0.074-0.206-0.021-0.179-0.083-0.352-0.18-0.504-0.186-0.31-0.392-0.608-0.618-0.89l-0.020-0.024c-0.27-0.345-0.517-0.708-0.74-1.086-0.272-0.451-0.424-0.964-0.44-1.49 0-0.376 0.13-0.736 0.238-0.988 0.118-0.276 0.268-0.548 0.404-0.776 0.159-0.261 0.328-0.516 0.506-0.764l0.050-0.070c0.159-0.212 0.396-0.353 0.658-0.391s0.529 0.030 0.742 0.189c0.212 0.159 0.353 0.396 0.391 0.658s-0.030 0.529-0.189 0.742zM20.8 1.6l-0.006 0.008-0.028 0.038c-0.146 0.2-0.282 0.407-0.408 0.62-0.107 0.171-0.202 0.349-0.282 0.534-0.052 0.12-0.068 0.184-0.074 0.206v0.008c0.023 0.177 0.085 0.346 0.182 0.496 0.15 0.266 0.356 0.544 0.616 0.89l0.020 0.024c0.236 0.316 0.52 0.694 0.74 1.086 0.224 0.4 0.44 0.91 0.44 1.49 0 0.376-0.13 0.736-0.238 0.988-0.116 0.268-0.251 0.528-0.404 0.776-0.156 0.262-0.324 0.517-0.504 0.764l-0.038 0.050-0.010 0.016-0.004 0.004c-0.159 0.212-0.396 0.353-0.658 0.391s-0.529-0.030-0.742-0.189c-0.212-0.159-0.353-0.396-0.391-0.658s0.030-0.529 0.189-0.742l0.006-0.008 0.028-0.038c0.146-0.2 0.282-0.407 0.408-0.62 0.107-0.171 0.202-0.349 0.282-0.534 0.052-0.12 0.068-0.184 0.074-0.206-0.021-0.179-0.083-0.352-0.18-0.504-0.186-0.31-0.392-0.608-0.618-0.89l-0.020-0.024c-0.27-0.345-0.517-0.708-0.74-1.086-0.272-0.451-0.424-0.964-0.44-1.49 0-0.376 0.13-0.736 0.238-0.988 0.118-0.276 0.268-0.548 0.404-0.776 0.159-0.261 0.328-0.516 0.506-0.764l0.050-0.070c0.159-0.212 0.396-0.353 0.658-0.391s0.529 0.030 0.742 0.189c0.212 0.159 0.353 0.396 0.391 0.658s-0.030 0.529-0.189 0.742z"></path>
</symbol>
<symbol id="icon-engine" viewBox="0 0 32 32">
<path d="M6 5c0-0.265 0.105-0.52 0.293-0.707s0.442-0.293 0.707-0.293h10c0.265 0 0.52 0.105 0.707 0.293s0.293 0.442 0.293 0.707v10c0 0.265-0.105 0.52-0.293 0.707s-0.442 0.293-0.707 0.293h-10c-0.265 0-0.52-0.105-0.707-0.293s-0.293-0.442-0.293-0.707v-10z"></path>
<path d="M2 4c0-1.061 0.421-2.078 1.172-2.828s1.768-1.172 2.828-1.172h12c1.061 0 2.078 0.421 2.828 1.172s1.172 1.768 1.172 2.828v16c1.061 0 2.078 0.421 2.828 1.172s1.172 1.768 1.172 2.828v1c0 0.265 0.105 0.52 0.293 0.707s0.442 0.293 0.707 0.293 0.52-0.105 0.707-0.293c0.188-0.188 0.293-0.442 0.293-0.707v-9h-1c-0.265 0-0.52-0.105-0.707-0.293s-0.293-0.442-0.293-0.707v-6.25c0-0.265 0.105-0.52 0.293-0.707s0.442-0.293 0.707-0.293h2.99c-0.022-0.952-0.106-1.788-0.402-2.444-0.158-0.381-0.435-0.702-0.788-0.916-0.368-0.22-0.928-0.39-1.8-0.39-0.265 0-0.52-0.105-0.707-0.293s-0.293-0.442-0.293-0.707 0.105-0.52 0.293-0.707c0.188-0.188 0.442-0.293 0.707-0.293 1.128-0.003 2.069 0.221 2.824 0.672 0.766 0.456 1.268 1.102 1.588 1.814 0.59 1.31 0.588 2.93 0.588 4.162v6.35c0 0.132-0.025 0.262-0.076 0.383s-0.124 0.232-0.217 0.325c-0.093 0.093-0.203 0.167-0.325 0.217s-0.252 0.076-0.383 0.076h-1v9c0 0.796-0.316 1.559-0.879 2.121s-1.326 0.879-2.121 0.879-1.559-0.316-2.121-0.879c-0.563-0.563-0.879-1.326-0.879-2.121v-1c0-0.53-0.211-1.039-0.586-1.414s-0.884-0.586-1.414-0.586v8h1c0.265 0 0.52 0.105 0.707 0.293s0.293 0.442 0.293 0.707-0.105 0.52-0.293 0.707c-0.188 0.188-0.442 0.293-0.707 0.293h-22c-0.265 0-0.52-0.105-0.707-0.293s-0.293-0.442-0.293-0.707 0.105-0.52 0.293-0.707c0.188-0.188 0.442-0.293 0.707-0.293h1v-26zM20 4c0-0.53-0.211-1.039-0.586-1.414s-0.884-0.586-1.414-0.586h-12c-0.53 0-1.039 0.211-1.414 0.586s-0.586 0.884-0.586 1.414v26h16v-26z"></path>
</symbol>
<symbol id="icon-ac" viewBox="0 0 32 32">
<path d="M25 4c-1.326 0-2.598 0.527-3.536 1.464s-1.464 2.209-1.464 3.536c0 0.265-0.105 0.52-0.293 0.707s-0.442 0.293-0.707 0.293-0.52-0.105-0.707-0.293c-0.188-0.188-0.293-0.442-0.293-0.707 0-1.384 0.411-2.738 1.18-3.889s1.862-2.048 3.142-2.578c1.279-0.53 2.687-0.668 4.044-0.398s2.605 0.937 3.584 1.916c0.979 0.979 1.646 2.226 1.916 3.584s0.132 2.765-0.398 4.044c-0.53 1.279-1.427 2.372-2.578 3.142s-2.504 1.18-3.889 1.18h-24c-0.265 0-0.52-0.105-0.707-0.293s-0.293-0.442-0.293-0.707c0-0.265 0.105-0.52 0.293-0.707s0.442-0.293 0.707-0.293h24c1.326 0 2.598-0.527 3.536-1.464s1.464-2.209 1.464-3.536-0.527-2.598-1.464-3.536c-0.938-0.938-2.209-1.464-3.536-1.464zM11 6c-0.53 0-1.039 0.211-1.414 0.586s-0.586 0.884-0.586 1.414c0 0.265-0.105 0.52-0.293 0.707s-0.442 0.293-0.707 0.293c-0.265 0-0.52-0.105-0.707-0.293s-0.293-0.442-0.293-0.707c0-0.791 0.235-1.564 0.674-2.222s1.064-1.171 1.795-1.473c0.731-0.303 1.535-0.382 2.311-0.228s1.489 0.535 2.048 1.095c0.559 0.559 0.94 1.272 1.095 2.048s0.075 1.58-0.228 2.311c-0.303 0.731-0.815 1.356-1.473 1.795s-1.431 0.674-2.222 0.674h-10c-0.265 0-0.52-0.105-0.707-0.293s-0.293-0.442-0.293-0.707c0-0.265 0.105-0.52 0.293-0.707s0.442-0.293 0.707-0.293h10c0.53 0 1.039-0.211 1.414-0.586s0.586-0.884 0.586-1.414c0-0.53-0.211-1.039-0.586-1.414s-0.884-0.586-1.414-0.586zM0 19c0-0.265 0.105-0.52 0.293-0.707s0.442-0.293 0.707-0.293h20.084c1.187 0 2.347 0.352 3.333 1.011s1.756 1.596 2.21 2.693c0.454 1.096 0.573 2.303 0.341 3.467s-0.803 2.233-1.642 3.072c-0.839 0.839-1.908 1.411-3.072 1.642s-2.37 0.113-3.467-0.341c-1.096-0.454-2.033-1.223-2.693-2.21s-1.011-2.147-1.011-3.333c0-0.265 0.105-0.52 0.293-0.707s0.442-0.293 0.707-0.293c0.265 0 0.52 0.105 0.707 0.293s0.293 0.442 0.293 0.707c0 0.791 0.235 1.564 0.674 2.222s1.064 1.171 1.795 1.473 1.535 0.382 2.311 0.228c0.776-0.154 1.489-0.535 2.048-1.095s0.94-1.272 1.095-2.048c0.154-0.776 0.075-1.58-0.228-2.311s-0.816-1.356-1.473-1.795c-0.658-0.44-1.431-0.674-2.222-0.674h-20.084c-0.265 0-0.52-0.105-0.707-0.293s-0.293-0.442-0.293-0.707z"></path>
</symbol>
<symbol id="icon-transmission" viewBox="0 0 32 32">
<path d="M12 7c0-0.796 0.316-1.559 0.879-2.121s1.326-0.879 2.121-0.879h2c0.796 0 1.559 0.316 2.121 0.879s0.879 1.326 0.879 2.121v2c0 0.796-0.316 1.559-0.879 2.121s-1.326 0.879-2.121 0.879v2h11c0.265 0 0.52 0.105 0.707 0.293s0.293 0.442 0.293 0.707v2c0 0.265-0.105 0.52-0.293 0.707s-0.442 0.293-0.707 0.293-0.52-0.105-0.707-0.293c-0.188-0.188-0.293-0.442-0.293-0.707v-1h-10v1c0 0.265-0.105 0.52-0.293 0.707s-0.442 0.293-0.707 0.293c-0.265 0-0.52-0.105-0.707-0.293s-0.293-0.442-0.293-0.707v-1h-10v1c0 0.265-0.105 0.52-0.293 0.707s-0.442 0.293-0.707 0.293-0.52-0.105-0.707-0.293c-0.188-0.188-0.293-0.442-0.293-0.707v-2c0-0.265 0.105-0.52 0.293-0.707s0.442-0.293 0.707-0.293h11v-2c-0.796 0-1.559-0.316-2.121-0.879s-0.879-1.326-0.879-2.121v-2zM17 10c0.265 0 0.52-0.105 0.707-0.293s0.293-0.442 0.293-0.707v-2c0-0.265-0.105-0.52-0.293-0.707s-0.442-0.293-0.707-0.293h-2c-0.265 0-0.52 0.105-0.707 0.293s-0.293 0.442-0.293 0.707v2c0 0.265 0.105 0.52 0.293 0.707s0.442 0.293 0.707 0.293h2zM0 23c0-0.796 0.316-1.559 0.879-2.121s1.326-0.879 2.121-0.879h2c0.796 0 1.559 0.316 2.121 0.879s0.879 1.326 0.879 2.121v2c0 0.796-0.316 1.559-0.879 2.121s-1.326 0.879-2.121 0.879h-2c-0.796 0-1.559-0.316-2.121-0.879s-0.879-1.326-0.879-2.121v-2zM3 22c-0.265 0-0.52 0.105-0.707 0.293s-0.293 0.442-0.293 0.707v2c0 0.265 0.105 0.52 0.293 0.707s0.442 0.293 0.707 0.293h2c0.265 0 0.52-0.105 0.707-0.293s0.293-0.442 0.293-0.707v-2c0-0.265-0.105-0.52-0.293-0.707s-0.442-0.293-0.707-0.293h-2zM12 23c0-0.796 0.316-1.559 0.879-2.121s1.326-0.879 2.121-0.879h2c0.796 0 1.559 0.316 2.121 0.879s0.879 1.326 0.879 2.121v2c0 0.796-0.316 1.559-0.879 2.121s-1.326 0.879-2.121 0.879h-2c-0.796 0-1.559-0.316-2.121-0.879s-0.879-1.326-0.879-2.121v-2zM15 22c-0.265 0-0.52 0.105-0.707 0.293s-0.293 0.442-0.293 0.707v2c0 0.265 0.105 0.52 0.293 0.707s0.442 0.293 0.707 0.293h2c0.265 0 0.52-0.105 0.707-0.293s0.293-0.442 0.293-0.707v-2c0-0.265-0.105-0.52-0.293-0.707s-0.442-0.293-0.707-0.293h-2zM24 23c0-0.796 0.316-1.559 0.879-2.121s1.326-0.879 2.121-0.879h2c0.796 0 1.559 0.316 2.121 0.879s0.879 1.326 0.879 2.121v2c0 0.796-0.316 1.559-0.879 2.121s-1.326 0.879-2.121 0.879h-2c-0.796 0-1.559-0.316-2.121-0.879s-0.879-1.326-0.879-2.121v-2zM27 22c-0.265 0-0.52 0.105-0.707 0.293s-0.293 0.442-0.293 0.707v2c0 0.265 0.105 0.52 0.293 0.707s0.442 0.293 0.707 0.293h2c0.265 0 0.52-0.105 0.707-0.293s0.293-0.442 0.293-0.707v-2c0-0.265-0.105-0.52-0.293-0.707s-0.442-0.293-0.707-0.293h-2z"></path>
</symbol>
</defs>
</svg>
